<?xml version="1.0" standalone="no"?>
<!DOCTYPE svg PUBLIC "-//W3C//DTD SVG 20010904//EN"
 "http://www.w3.org/TR/2001/REC-SVG-20010904/DTD/svg10.dtd">
<svg version="1.0" xmlns="http://www.w3.org/2000/svg"
 width="260.000000pt" height="260.000000pt" viewBox="0 0 260.000000 260.000000"
 preserveAspectRatio="xMidYMid meet">
<metadata>
Created by potrace 1.11, written by Peter Selinger 2001-2013
</metadata>
<g transform="translate(0.000000,260.000000) scale(0.100000,-0.100000)"
fill="#000000" stroke="none">
<path d="M1284 2546 c-18 -8 -35 -19 -38 -25 -4 -6 -12 -9 -17 -6 -5 4 -9 2
-9 -2 0 -5 -17 -17 -37 -28 -86 -45 -228 -129 -234 -137 -3 -6 -9 -9 -13 -8
-6 1 -49 -23 -146 -80 -8 -5 -49 -28 -90 -51 -41 -23 -78 -47 -82 -53 -4 -6
-8 -8 -8 -4 0 4 -13 0 -29 -10 -80 -47 -167 -97 -176 -101 -5 -2 -17 -9 -25
-16 -8 -7 -44 -28 -80 -46 -36 -19 -71 -40 -78 -46 -7 -7 -18 -13 -23 -13 -5
0 -9 -247 -9 -624 l0 -624 32 -16 c18 -9 40 -21 48 -26 29 -18 165 -96 180
-103 8 -4 33 -18 55 -32 22 -14 47 -28 55 -32 8 -4 35 -19 60 -34 127 -75 196
-113 203 -111 4 1 7 -2 7 -7 0 -5 10 -13 23 -17 12 -4 41 -20 64 -35 23 -16
44 -29 46 -29 10 0 152 -84 155 -92 2 -5 7 -6 12 -3 4 2 18 -4 31 -15 12 -12
33 -23 46 -26 13 -4 23 -9 23 -13 0 -4 15 -15 34 -23 34 -17 76 -14 76 4 0 5
4 7 9 4 5 -3 20 4 35 15 14 11 26 18 26 14 0 -3 19 7 43 22 63 42 79 51 117
69 19 10 41 22 49 28 20 16 122 74 154 88 15 7 27 16 27 21 0 4 5 5 10 2 6 -3
10 -1 10 4 0 6 7 11 15 11 8 0 15 4 15 9 0 5 12 12 27 16 15 3 30 10 33 14 3
4 36 25 73 45 37 21 75 45 84 55 9 9 17 14 17 12 1 -4 127 64 194 104 10 6 47
27 84 48 l68 38 2 624 c2 343 2 622 0 620 -2 -1 -69 36 -150 82 -214 125 -236
137 -337 193 -33 19 -62 36 -65 39 -3 4 -21 14 -40 23 -19 10 -57 31 -85 48
-27 17 -59 35 -70 41 -59 30 -220 123 -225 129 -3 3 -20 12 -37 19 -18 8 -33
17 -33 22 0 5 -7 9 -16 9 -8 0 -22 7 -30 15 -18 18 -20 18 -60 1z m158 -573
c21 -13 42 -23 48 -23 5 0 10 -3 10 -8 0 -4 15 -13 33 -21 17 -8 34 -18 37
-21 3 -4 23 -17 45 -29 22 -12 47 -26 55 -31 8 -6 80 -48 160 -94 l145 -83 1
-373 1 -373 -36 -21 c-20 -11 -38 -19 -40 -18 -2 2 -7 0 -10 -5 -3 -4 -33 -21
-66 -38 -33 -16 -62 -32 -65 -35 -3 -3 -32 -18 -65 -35 -33 -16 -62 -33 -63
-38 -2 -4 -7 -5 -12 -2 -5 3 -14 0 -22 -7 -7 -7 -44 -29 -83 -48 -38 -19 -96
-50 -128 -67 -33 -18 -65 -33 -74 -33 -8 0 -37 13 -66 29 -29 16 -92 50 -142
76 -360 189 -429 227 -440 237 -6 6 -10 145 -11 377 l0 368 33 21 c18 12 37
22 43 22 5 0 10 4 10 9 0 5 11 12 25 15 14 4 25 11 25 17 0 6 5 7 10 4 6 -3
10 -3 10 2 0 4 21 19 48 33 26 13 70 38 97 56 28 17 57 34 65 37 21 9 51 29
68 45 7 7 17 10 22 7 5 -3 10 -1 12 3 3 8 97 67 163 103 32 18 37 16 157 -58z"/>
</g>
</svg>
